# Blender v2.79 (sub 0) OBJ File: 'wheel 6x6x2_low.blend'
# www.blender.org
mtllib wheel 6x6x2_low.mtl
o Cylinder.001
v 0.000000 0.000000 -1.000000
v 0.000000 -0.000000 1.000000
v 0.000000 3.000000 -1.000000
v 0.000000 3.000000 1.000000
v 1.500000 2.598076 -1.000000
v 1.500000 2.598076 1.000000
v 2.598076 1.500000 -1.000000
v 2.598076 1.500000 1.000000
v 3.000000 -0.000000 -1.000000
v 3.000000 -0.000000 1.000000
v 2.598076 -1.500000 -1.000000
v 2.598076 -1.500000 1.000000
v 1.500000 -2.598076 -1.000000
v 1.500000 -2.598076 1.000000
v 0.000000 -3.000000 -1.000000
v 0.000000 -3.000000 1.000000
v -1.499999 -2.598077 -1.000000
v -1.499999 -2.598077 1.000000
v -2.598076 -1.500001 -1.000000
v -2.598076 -1.500001 1.000000
v -3.000000 -0.000001 -1.000000
v -3.000000 -0.000001 1.000000
v -2.598077 1.499998 -1.000000
v -2.598077 1.499998 1.000000
v -1.500002 2.598075 -1.000000
v -1.500002 2.598075 1.000000
vn 0.0000 0.0000 -1.0000
vn -0.0000 -0.0000 1.0000
vn 0.2588 0.9659 0.0000
vn 0.7071 0.7071 0.0000
vn 0.9659 0.2588 0.0000
vn 0.9659 -0.2588 0.0000
vn 0.7071 -0.7071 0.0000
vn 0.2588 -0.9659 0.0000
vn -0.2588 -0.9659 0.0000
vn -0.7071 -0.7071 0.0000
vn -0.9659 -0.2588 -0.0000
vn -0.9659 0.2588 0.0000
vn -0.7071 0.7071 0.0000
vn -0.2588 0.9659 0.0000
usemtl None
s off
f 1//1 3//1 5//1
f 2//2 6//2 4//2
f 3//3 4//3 6//3 5//3
f 1//1 5//1 7//1
f 2//2 8//2 6//2
f 5//4 6//4 8//4 7//4
f 1//1 7//1 9//1
f 2//2 10//2 8//2
f 7//5 8//5 10//5 9//5
f 1//1 9//1 11//1
f 2//2 12//2 10//2
f 9//6 10//6 12//6 11//6
f 1//1 11//1 13//1
f 2//2 14//2 12//2
f 11//7 12//7 14//7 13//7
f 1//1 13//1 15//1
f 2//2 16//2 14//2
f 13//8 14//8 16//8 15//8
f 1//1 15//1 17//1
f 2//2 18//2 16//2
f 15//9 16//9 18//9 17//9
f 1//1 17//1 19//1
f 2//2 20//2 18//2
f 17//10 18//10 20//10 19//10
f 1//1 19//1 21//1
f 2//2 22//2 20//2
f 19//11 20//11 22//11 21//11
f 1//1 21//1 23//1
f 2//2 24//2 22//2
f 21//12 22//12 24//12 23//12
f 1//1 23//1 25//1
f 2//2 26//2 24//2
f 23//13 24//13 26//13 25//13
f 1//1 25//1 3//1
f 2//2 4//2 26//2
f 25//14 26//14 4//14 3//14
