# Blender v2.79 (sub 0) OBJ File: 'frame 4x2x1_low.blend'
# www.blender.org
mtllib frame 4x2x1_low.mtl
o Cube.001_Cube.002
v -4.000000 -1.000000 2.000000
v -4.000000 1.000000 2.000000
v -4.000000 -1.000000 -2.000000
v -4.000000 1.000000 -2.000000
v 4.000000 -1.000000 2.000000
v 4.000000 1.000000 2.000000
v 4.000000 -1.000000 -2.000000
v 4.000000 1.000000 -2.000000
v -4.000000 -1.000000 -1.647452
v -4.000000 -1.000000 1.647452
v -4.000000 1.000000 1.647452
v -4.000000 1.000000 -1.647452
v 4.000000 -1.000000 1.647452
v 4.000000 -1.000000 -1.647452
v 4.000000 1.000000 -1.647452
v 4.000000 1.000000 1.647452
v 3.207880 -0.974001 1.822906
v 3.894353 -0.974001 1.822906
v 3.894353 0.974001 1.822906
v -3.207882 0.974001 1.822906
v -3.894355 0.974001 1.822906
v -3.894355 -0.974001 1.822906
v -3.894353 -0.974001 -1.822906
v -3.894353 0.974001 -1.822906
v -3.207880 -0.974001 -1.822906
v 3.207882 0.974001 -1.822906
v 3.894355 0.974001 -1.822906
v 3.894355 -0.974001 -1.822906
v -3.207882 -0.974001 1.822906
v 3.207880 0.974001 1.822906
v 3.207882 -0.974001 -1.822906
v -3.207880 0.974001 -1.822906
v -3.500000 0.000000 -0.400000
v 3.500000 -0.000000 -0.400000
v -3.500000 -0.346410 -0.200000
v 3.500000 -0.346410 -0.200000
v -3.500000 -0.346410 0.200000
v 3.500000 -0.346410 0.200000
v -3.500000 0.000000 0.400000
v 3.500000 -0.000000 0.400000
v -3.500000 0.346410 0.200000
v 3.500000 0.346410 0.200000
v -3.500000 0.346410 -0.200000
v 3.500000 0.346410 -0.200000
vn 1.0000 0.0000 0.0000
vn 0.0000 0.0000 1.0000
vn -1.0000 0.0000 0.0000
vn 0.0000 0.0000 -1.0000
vn 0.0000 1.0000 0.0000
vn 0.0000 -1.0000 0.0000
vn -0.0000 -0.5000 -0.8660
vn -0.0000 -0.5000 0.8660
vn 0.0000 0.5000 0.8660
vn 0.0000 0.5000 -0.8660
usemtl None
s off
f 9//1 3//1 4//1 12//1
f 3//2 7//2 8//2 4//2
f 13//3 5//3 6//3 16//3
f 5//4 1//4 2//4 6//4
f 10//5 1//5 5//5 13//5
f 16//6 6//6 2//6 11//6
f 8//6 15//6 12//6 4//6
f 14//4 9//4 12//4 15//4
f 3//5 9//5 14//5 7//5
f 10//2 13//2 16//2 11//2
f 7//3 14//3 15//3 8//3
f 22//3 21//3 24//3 23//3
f 1//1 10//1 11//1 2//1
f 29//2 20//2 21//2 22//2
f 31//4 26//4 27//4 28//4
f 28//1 27//1 19//1 18//1
f 17//6 31//6 28//6 18//6
f 26//5 30//5 19//5 27//5
f 24//5 21//5 20//5 32//5
f 25//1 32//1 20//1 29//1
f 22//6 23//6 25//6 29//6
f 17//3 30//3 26//3 31//3
f 23//4 24//4 32//4 25//4
f 18//2 19//2 30//2 17//2
f 33//7 34//7 36//7 35//7
f 35//6 36//6 38//6 37//6
f 37//8 38//8 40//8 39//8
f 39//9 40//9 42//9 41//9
f 36//1 34//1 44//1 42//1 40//1 38//1
f 41//5 42//5 44//5 43//5
f 43//10 44//10 34//10 33//10
f 33//3 35//3 37//3 39//3 41//3 43//3
